<svg t="1693638217347" class="icon" viewBox="0 0 1024 1024" version="1.1" xmlns="http://www.w3.org/2000/svg" p-id="6401" width="200" height="200"><path d="M512 42.666667a469.333333 469.333333 0 1 1 0 938.666666 469.333333 469.333333 0 0 1 0-938.666666z m0 85.333333a384 384 0 1 0 0 768 384 384 0 0 0 0-768z m-8.021333 576a39.978667 39.978667 0 1 1 0 80 39.978667 39.978667 0 0 1 0-80zM302.933333 506.666667a89.6 89.6 0 1 1 0 179.2 89.6 89.6 0 0 1 0-179.2z m384 0a81.066667 81.066667 0 1 1 0 162.133333 81.066667 81.066667 0 0 1 0-162.133333zM519.978667 416a39.978667 39.978667 0 1 1 0 80 39.978667 39.978667 0 0 1 0-80zM708.266667 346.666667a25.6 25.6 0 1 1 0 51.2 25.6 25.6 0 0 1 0-51.2z m-346.666667-96a68.266667 68.266667 0 1 1 0 136.533333 68.266667 68.266667 0 0 1 0-136.533333z" fill="#191B27" p-id="6402"></path></svg>